STARTFONT 2.1
COMMENT Original hand-drawn corpus bitmap glyphs; no redistributed font.
FONT -corpus-original-medium-r-normal--7-70-72-72-c-60-iso10646-1
SIZE 7 72 72
FONTBOUNDINGBOX 5 7 0 0
STARTPROPERTIES 5
FONT_ASCENT 7
FONT_DESCENT 0
DEFAULT_CHAR 32
CHARSET_REGISTRY "ISO10646"
CHARSET_ENCODING "1"
ENDPROPERTIES
CHARS 10
STARTCHAR char0020
ENCODING 32
SWIDTH 857 0
DWIDTH 6 0
BBX 5 7 0 0
BITMAP
00
00
00
00
00
00
00
ENDCHAR
STARTCHAR char0021
ENCODING 33
SWIDTH 857 0
DWIDTH 6 0
BBX 5 7 0 0
BITMAP
20
20
20
20
20
00
20
ENDCHAR
STARTCHAR char002C
ENCODING 44
SWIDTH 857 0
DWIDTH 6 0
BBX 5 7 0 0
BITMAP
00
00
00
00
30
20
40
ENDCHAR
STARTCHAR char0048
ENCODING 72
SWIDTH 857 0
DWIDTH 6 0
BBX 5 7 0 0
BITMAP
88
88
88
F8
88
88
88
ENDCHAR
STARTCHAR char0057
ENCODING 87
SWIDTH 857 0
DWIDTH 6 0
BBX 5 7 0 0
BITMAP
88
88
88
A8
A8
A8
50
ENDCHAR
STARTCHAR char0064
ENCODING 100
SWIDTH 857 0
DWIDTH 6 0
BBX 5 7 0 0
BITMAP
08
08
68
98
88
88
78
ENDCHAR
STARTCHAR char0065
ENCODING 101
SWIDTH 857 0
DWIDTH 6 0
BBX 5 7 0 0
BITMAP
00
70
88
F8
80
88
70
ENDCHAR
STARTCHAR char006C
ENCODING 108
SWIDTH 857 0
DWIDTH 6 0
BBX 5 7 0 0
BITMAP
30
10
10
10
10
10
38
ENDCHAR
STARTCHAR char006F
ENCODING 111
SWIDTH 857 0
DWIDTH 6 0
BBX 5 7 0 0
BITMAP
00
00
70
88
88
88
70
ENDCHAR
STARTCHAR char0072
ENCODING 114
SWIDTH 857 0
DWIDTH 6 0
BBX 5 7 0 0
BITMAP
00
00
B0
C8
80
80
80
ENDCHAR
ENDFONT
